# xmcd
#
# Track frame offsets: 
#        150
#        19007
#        34960
#        48603
#        55093
#        70844
#        97536
#        122676
#        144662
#        162222
#        184882
#        209211
#        231146
#
# Disc length: 3273 seconds
#
# Revision: 0
# Processed by: cddbd v1.5PL3 Copyright (c) Steve Scherf et al.
# Submitted via: ExactAudioCopy v0.95a5
#
DISCID=b60cc70d
DTITLE=Various Artist - Probot
DYEAR=2004
DGENRE=Booty Bass
TTITLE0=Centuries of sin
TTITLE1=Red war
TTITLE2=Shake your blood
TTITLE3=Access babylon
TTITLE4=Silent spring
TTITLE5=Ice cold man
TTITLE6=The emerald law
TTITLE7=Big sky
TTITLE8=Dictatosaurus
TTITLE9=My tortured soul
TTITLE10=Sweet dreams
TTITLE11=Goodbye lairent
TTITLE12=The warlock
EXTD=
EXTT0=
EXTT1=
EXTT2=
EXTT3=
EXTT4=
EXTT5=
EXTT6=
EXTT7=
EXTT8=
EXTT9=
EXTT10=
EXTT11=
EXTT12=
PLAYORDER=
